<?xml version="1.0" standalone="no"?>
<!DOCTYPE svg PUBLIC "-//W3C//DTD SVG 20010904//EN"
 "http://www.w3.org/TR/2001/REC-SVG-20010904/DTD/svg10.dtd">
<svg version="1.0" xmlns="http://www.w3.org/2000/svg"
 width="16.000000pt" height="16.000000pt" viewBox="0 0 16.000000 16.000000"
 preserveAspectRatio="xMidYMid meet">
<metadata>
Created by potrace 1.11, written by Peter Selinger 2001-2013
</metadata>
<g transform="translate(0.000000,16.000000) scale(0.000845,-0.000845)"
fill="#000000" stroke="none">
<path d="M2760 18913 c-384 -38 -691 -127 -1030 -299 -270 -136 -503 -305
-721 -523 -469 -469 -755 -1070 -819 -1721 -8 -84 -10 -1942 -7 -6975 3 -6354
4 -6867 20 -6953 82 -457 216 -803 443 -1144 219 -330 529 -634 859 -843 114
-72 401 -213 526 -259 201 -74 438 -130 659 -158 156 -19 13387 -19 13535 0
757 100 1417 469 1888 1057 317 395 519 870 594 1395 17 119 18 453 18 6970 0
5567 -2 6865 -13 6950 -41 327 -130 628 -271 915 -159 321 -292 507 -545 761
-240 239 -441 387 -731 534 -298 152 -609 245 -951 285 -114 13 -900 15 -6774
13 -3655 0 -6661 -3 -6680 -5z m6980 -1873 c1057 -60 2017 -377 2880 -953 798
-532 1461 -1273 1901 -2121 288 -558 489 -1180 578 -1791 45 -310 55 -455 55
-835 0 -380 -10 -525 -55 -835 -210 -1447 -984 -2770 -2149 -3675 -429 -333
-941 -625 -1417 -806 -57 -21 -103 -42 -103 -46 0 -4 301 -502 669 -1107 368
-605 666 -1102 663 -1106 -3 -3 -1418 -5 -3145 -5 -2985 0 -3139 1 -3135 18 3
9 283 489 622 1066 340 576 616 1050 614 1052 -2 2 -58 22 -124 45 -1037 357
-1982 1060 -2694 2004 -872 1157 -1273 2553 -1124 3920 104 967 480 1937 1070
2761 1154 1614 2994 2521 4894 2414z"/>
<path d="M9110 15824 c-19 -2 -87 -9 -150 -15 -176 -16 -451 -65 -642 -114
-999 -254 -1870 -833 -2498 -1660 -705 -928 -1020 -2122 -870 -3292 222 -1730
1422 -3176 3085 -3716 707 -230 1501 -280 2230 -141 876 168 1669 580 2304
1199 377 367 657 750 890 1215 250 499 394 996 458 1570 23 213 23 685 0 900
-83 758 -329 1443 -740 2060 -270 405 -646 801 -1042 1100 -637 479 -1367 771
-2195 876 -118 15 -739 28 -830 18z m1255 -890 c802 -98 1548 -570 2007 -1269
95 -144 235 -424 279 -555 35 -105 35 -150 -1 -219 -40 -79 -151 -141 -254
-141 -146 0 -237 70 -300 232 -129 334 -356 647 -639 881 -147 122 -283 209
-462 297 -266 131 -493 194 -801 224 -174 16 -209 29 -273 102 -100 113 -94
304 13 402 38 35 69 51 131 65 27 7 156 -1 300 -19z m2520 -2392 c82 -42 121
-101 173 -262 100 -303 138 -576 129 -904 -8 -274 -39 -464 -118 -719 -45
-148 -115 -213 -240 -224 -132 -12 -254 67 -280 181 -11 53 -11 64 11 134 73
241 100 403 107 628 9 292 -23 512 -118 797 -27 82 -49 165 -49 185 0 81 71
168 160 197 62 20 174 14 225 -13z"/>
</g>
</svg>
